<svg width="32" height="32" viewBox="0 0 32 32" fill="none" xmlns="http://www.w3.org/2000/svg">
<path d="M12.1653 7C2.38903 10.3118 5.66214 19.994 12.1653 15.5074C20.8727 9.5 27.797 13.5509 23.4779 19.8936C22.4818 21.3564 21.2485 22.6069 19.3728 24" stroke="#488AED" stroke-width="2" stroke-linecap="round" stroke-linejoin="round"/>
<path d="M17 25.1602C17 25.7124 17.4477 26.1602 18 26.1602L27 26.1602C27.5523 26.1602 28 25.7124 28 25.1602C28 24.6079 27.5523 24.1602 27 24.1602L19 24.1602L19 16.1602C19 15.6079 18.5523 15.1602 18 15.1602C17.4477 15.1602 17 15.6079 17 16.1602L17 25.1602ZM19 24.1602L18.2929 23.453L17.2929 24.453L18 25.1602L18.7071 25.8673L19.7071 24.8673L19 24.1602Z" fill="#488AED"/>
</svg>
